<svg xmlns="http://www.w3.org/2000/svg" xmlns:xlink="http://www.w3.org/1999/xlink" width="64" height="47.849" viewBox="0 0 64 47.849">
  <defs>
    <filter id="_247204021554126447">
      <feOffset dx="5" dy="3" input="SourceAlpha"/>
      <feGaussianBlur stdDeviation="3" result="blur"/>
      <feFlood flood-color="#ff8182" result="color"/>
      <feComposite operator="out" in="SourceGraphic" in2="blur"/>
      <feComposite operator="in" in="color"/>
      <feComposite operator="in" in2="SourceGraphic"/>
    </filter>
  </defs>
  <g data-type="innerShadowGroup">
    <path id="_247204021554126447-2" data-name="247204021554126447" d="M1,21C1,41,29.823,50.849,32,50.849S63,41,63,21c0-8.285-6-16-15-16-8.285,0-16,5.715-16,14,0-8.285-7.715-14-16-14C7,5,1,12.715,1,21Z" transform="translate(0 -4)" fill="#ff696a"/>
    <g transform="matrix(1, 0, 0, 1, 0, 0)" filter="url(#_247204021554126447)">
      <path id="_247204021554126447-3" data-name="247204021554126447" d="M1,21C1,41,29.823,50.849,32,50.849S63,41,63,21c0-8.285-6-16-15-16-8.285,0-16,5.715-16,14,0-8.285-7.715-14-16-14C7,5,1,12.715,1,21Z" transform="translate(0 -4)" fill="#fff"/>
    </g>
    <path id="_247204021554126447-4" data-name="247204021554126447" d="M1,21C1,41,29.823,50.849,32,50.849S63,41,63,21c0-8.285-6-16-15-16-8.285,0-16,5.715-16,14,0-8.285-7.715-14-16-14C7,5,1,12.715,1,21Z" transform="translate(0 -4)" fill="none" stroke="#fff" stroke-miterlimit="10" stroke-width="2"/>
  </g>
</svg>
